<svg width="129" height="95" viewBox="0 0 129 95" fill="none" xmlns="http://www.w3.org/2000/svg">
<path d="M107.108 25.0599L107.177 25.0248C106.863 20.5236 105.956 15.8818 103.479 12.0488C103.234 11.662 102.851 11.3807 102.571 10.9938C102.292 10.607 102.153 10.1499 101.873 9.79823C101.28 9.13009 100.617 8.46195 99.9543 7.86414C99.3959 7.16084 98.7678 6.4927 98.035 5.96523C95.8018 4.45312 93.5336 2.90585 90.9514 2.02672C89.2765 1.32342 87.4271 1.25309 85.6823 0.831108C84.7751 0.725612 83.8678 0.655282 82.9605 0.620117C81.5996 0.725613 80.2737 0.936604 78.9128 0.971769C75.0046 1.71024 71.1312 3.50366 67.9209 5.89489C65.3038 8.35646 62.5123 10.9587 61.2909 14.44C59.8952 13.7367 58.3249 13.3499 56.7197 13.3499C55.8474 13.4906 55.0099 13.6312 54.1375 13.7016C53.2303 13.8071 52.4626 14.1587 51.7298 14.651C50.4387 15.0378 49.4616 15.9521 48.5544 16.8664C48.1007 15.6005 47.2982 14.5455 46.4956 13.4906C45.5185 12.0488 44.2274 10.7829 42.7619 9.8334C41.7848 8.95427 40.5635 8.42679 39.412 7.75865C38.5745 7.47733 37.7719 7.19601 36.9345 6.87952C36.097 6.70369 35.2246 6.56303 34.3522 6.38721C32.6075 5.96523 30.8279 6.35204 29.0832 6.35204C28.2108 6.52787 27.3384 6.73886 26.466 6.94985C25.6635 7.33666 24.826 7.61799 23.9536 7.89931C23.1162 8.25096 22.3485 8.67294 21.6157 9.16526C20.9527 9.76306 20.2548 10.3257 19.522 10.818C18.5799 11.7675 17.6726 12.7521 16.8002 13.7367C16.3117 14.4752 15.8232 15.2488 15.3346 15.9873C14.5321 18.062 13.5899 20.1368 13.2061 22.317C13.1712 23.2665 13.1712 24.1808 13.1014 25.1303C11.7405 25.0951 10.4494 25.4467 9.22808 26.0094C8.35571 26.2204 7.55313 26.572 6.82034 27.1698C5.66882 27.8731 4.62198 28.7171 3.8194 29.8072C2.28404 31.4248 1.06272 33.3589 0.574197 35.5743C0.155461 36.8754 -0.158589 38.1765 0.0856733 39.548H0.0507765C0.0507765 43.592 1.83041 47.4953 4.65688 50.3437C5.73861 51.1173 6.75056 51.9965 7.97187 52.5591C9.22808 53.0514 10.3796 53.7195 11.7405 53.8954C44.6811 53.9657 77.831 54.7393 110.632 53.6492C112.761 53.0163 114.75 51.8558 116.425 50.3789C117.681 49.1129 118.623 47.5656 119.635 46.0887C120.437 44.014 121.17 41.8337 121.17 39.5831H121.066C121.1 34.66 119.216 31.249 115.622 28.049C114.854 27.5918 114.121 27.1347 113.424 26.6072C111.4 25.7984 109.306 24.9544 107.073 25.0951L107.108 25.0599Z" fill="url(#paint0_linear_5305_46786)"/>
<path d="M21.4067 69.7898C20.0458 69.7546 18.6849 70.0711 17.3938 70.4228C16.1027 70.8799 14.986 71.6887 13.9043 72.4975C13.1366 73.025 12.5085 73.658 11.9851 74.4316C11.3221 75.0646 10.8336 75.8382 10.5195 76.7173C9.57736 78.2998 9.22841 80.1635 9.36799 81.9921C9.2982 83.3635 9.36799 84.7702 10.031 86.0009C10.3101 87.4427 11.1825 88.3922 11.9502 89.5878C13.3809 91.3812 15.2303 92.7878 17.3938 93.5614C19.976 94.3702 22.8722 94.5109 25.3847 93.4559C28.3856 92.6471 31.0376 90.1504 32.3636 87.3372C33.1313 85.7196 33.5849 83.8559 33.4802 82.0273C33.4453 80.6558 33.4104 79.2844 32.887 77.9833C31.1423 73.236 26.4315 69.7195 21.4067 69.7898Z" fill="white"/>
<path d="M22.4189 94.7926C21.5814 94.7223 20.8137 94.7926 19.9763 94.7223C17.6034 94.5817 15.3353 93.4915 13.4509 92.0498C12.439 91.0651 11.4619 90.0805 10.7292 88.8497C10.45 88.4277 10.1011 88.0761 9.89169 87.5838C9.57763 86.6343 9.29848 85.7904 8.94953 84.8761C8.67037 82.52 8.53079 80.0233 9.36827 77.7727C9.787 76.8584 10.1708 76.0496 10.5896 75.1705C10.9385 74.6078 11.4271 74.2562 11.776 73.7287C12.5437 72.6386 13.5556 72.0056 14.6723 71.232C15.4399 70.6693 16.2774 70.177 17.1847 69.8605C18.1268 69.5792 19.0341 69.4034 19.9763 69.2627C20.7439 69.1572 22.0699 69.2275 22.8725 69.1924L22.8376 69.2276C25.6641 69.6847 28.3161 70.8803 30.3749 72.9551C32.2941 74.9595 33.8643 77.7024 34.0039 80.5507C34.4575 84.1024 33.306 88.2168 30.7238 90.7487C29.4327 92.0498 27.8276 93.386 26.0828 93.8784C24.8615 94.2652 23.6751 94.7575 22.4189 94.7926ZM21.4069 93.5267C22.9074 93.7377 24.3032 93.175 25.7339 92.7179C27.1646 92.2959 28.4906 91.2761 29.5374 90.186C30.5493 89.2717 31.1774 88.3574 31.8055 87.0563C32.2941 86.142 32.4685 85.2629 32.6779 84.2782C33.0269 83.153 32.8524 81.7815 32.7826 80.6914C32.7826 78.9331 31.9451 77.2804 31.1077 75.8386C29.2931 72.8496 26.0828 70.9506 22.698 70.4232C20.9882 70.2825 19.2435 70.5287 17.6034 70.9858C15.9983 71.5836 14.5676 72.7089 13.2765 73.7639C12.6484 74.6782 11.6713 75.4166 11.2875 76.4716C10.4849 78.054 9.8219 79.6716 9.96148 81.5002C9.99637 82.7661 9.787 84.0673 10.3802 85.2629C10.6594 85.7904 10.7641 86.4937 10.9734 87.0563C11.1479 87.4431 11.5317 87.7948 11.7411 88.1816C13.765 91.5574 17.5336 93.7377 21.4069 93.5267Z" fill="#3C1053"/>
<path d="M91.2999 56.0401C89.974 55.8994 88.648 55.6533 87.4615 55.0203C86.0658 53.9302 84.7048 52.6994 84.0767 50.9763H84.1116C83.9023 50.0972 83.5533 49.3587 83.0299 48.6554C82.2273 47.1433 81.3201 45.6664 79.9243 44.6114C78.9472 43.7675 78.1098 42.7477 76.9233 42.2554C74.6901 41.0246 72.2823 39.9696 69.7001 39.8993C68.7929 39.8993 68.095 39.8993 67.1877 39.829C66.5945 39.829 66.5945 39.9344 65.9664 39.9344C65.0591 39.8993 64.431 39.8641 63.5238 39.829C62.6165 39.8641 61.9884 39.829 61.0812 39.7586C59.4062 39.7235 57.7313 39.8641 56.0563 39.829C53.509 40.1103 50.9966 40.2861 48.4493 40.5674C46.3905 41.0597 44.2619 41.3411 42.1682 41.6575C40.1443 42.2202 38.0507 42.7125 35.9919 43.2751C34.8404 43.8026 33.5841 44.1191 32.3628 44.5411C30.7577 45.0334 29.2921 45.9125 27.7218 46.4752C25.7677 47.284 23.9183 48.1983 22.0689 49.2181C19.1377 50.8708 16.4857 52.9456 13.8338 54.95C6.81992 61.4907 2.73724 67.9963 1.41125 77.6667C1.37635 78.9326 1.23677 80.1986 1.27167 81.4645C1.27167 82.0623 1.65551 82.5195 2.24872 82.5195H3.50493C4.13303 82.5195 4.13303 82.5547 4.76113 82.5547C5.38924 82.5547 5.42414 82.7305 6.05224 82.625C5.94756 81.9569 6.05224 81.3239 6.15692 80.6909C6.26161 79.4601 6.2965 78.1942 6.78503 77.0689C7.23866 75.9084 7.76208 74.7832 8.2506 73.6579C9.15786 72.2864 10.2745 71.0556 11.4609 69.9304C12.1588 69.4732 12.7869 68.9809 13.415 68.4534C14.1129 67.9963 14.8806 67.6798 15.6483 67.4688C17.8117 66.3083 20.4288 66.238 22.8017 66.238C24.4068 66.4842 26.012 66.7655 27.5474 67.3985C29.4666 68.2073 31.0717 69.4732 32.6071 70.8095C35.5731 73.8689 37.3877 78.159 37.1434 82.4843C37.7715 82.5898 37.7715 82.5195 38.3647 82.5195C38.9579 82.5195 38.9928 82.625 39.6209 82.625C40.249 82.625 40.249 82.5547 40.8771 82.5547C41.5052 82.5547 41.5052 82.5898 42.1333 82.5898C42.7614 82.5898 42.7614 82.4843 43.3895 82.4843C44.0177 82.4843 44.0177 82.5195 44.6458 82.5195C46.7743 82.4843 48.7633 82.625 50.8919 82.5898C51.52 82.5898 51.52 82.5195 52.1481 82.5195C52.7762 82.5195 52.7762 82.5898 53.4043 82.5898C54.0324 82.5898 54.0324 82.4843 54.6605 82.4843C55.6027 82.5195 56.2308 82.5195 57.1729 82.5195C58.4292 82.4843 59.6505 82.625 60.9067 82.625C63.0353 82.5195 65.0243 82.7305 67.1528 82.5547C67.9205 82.5195 68.8976 82.5898 69.6652 82.625C70.6074 82.625 71.2355 82.5547 72.1777 82.5195C73.1198 82.5898 73.7479 82.625 74.6901 82.5898C76.0161 82.6602 77.1327 82.625 78.4238 82.5547C79.0519 82.5547 79.0519 82.5898 79.68 82.5898C80.3081 82.5898 80.3081 82.4843 80.9362 82.4843C81.5643 82.4843 81.5643 82.625 82.1924 82.625C82.8205 82.625 82.8205 82.4843 83.4486 82.4843C84.7746 82.5898 85.8913 82.5195 87.2173 82.4843C87.8454 82.4843 87.8454 82.625 88.4735 82.5195C88.5433 80.6909 88.6131 78.8271 89.311 77.104C89.7646 75.0996 90.7765 73.2007 92.277 71.7941C92.9749 70.7743 93.917 70.0007 94.929 69.2622C95.8363 68.4183 96.9529 67.8204 98.1393 67.4688C99.9538 66.449 102.048 66.2732 104.071 66.1677C104.874 66.2732 105.677 66.3787 106.514 66.3787C107.282 66.5897 108.084 66.8358 108.887 67.0116C110.911 67.3985 112.655 68.6292 114.156 70.0007C115.168 70.704 115.901 71.7238 116.703 72.6732C117.436 73.693 118.169 74.6777 118.413 75.9436C119.111 76.9986 119.181 78.2645 119.425 79.4953C119.739 80.4799 119.774 81.4997 119.669 82.5195C120.332 82.625 120.332 82.5898 120.96 82.5898C121.589 82.5898 121.623 82.625 122.286 82.625C122.949 82.625 122.949 82.5195 123.612 82.5195C125.008 82.4492 126.16 82.5547 127.556 82.5547C128.114 82.5547 128.463 82.1327 128.533 81.57C128.707 80.4096 128.742 79.0733 128.533 77.8074C128.358 75.6974 127.451 73.7985 126.927 71.7589C126.299 70.6688 125.636 69.6139 125.113 68.4534C124.345 67.4688 123.612 66.449 122.67 65.605C120.751 63.3193 118.169 61.983 115.656 60.5061C114.505 60.0489 113.353 59.5918 112.237 58.994C111.05 58.572 109.864 58.2555 108.643 57.9742C107.84 57.6577 107.072 57.4819 106.235 57.3764C105.851 57.2709 105.467 57.0599 105.048 56.9544C103.827 56.8489 102.571 56.7082 101.35 56.4269C100.512 56.2863 99.7096 56.2159 98.8721 56.2511C98.0346 56.0753 97.232 56.0401 96.3946 56.0753C95.5571 56.0401 94.7196 55.9698 93.9171 55.8291C92.9749 56.0049 92.1374 56.0753 91.2999 56.0401Z" fill="#8138E0"/>
<path d="M112.586 73.3769C111.644 72.3923 110.457 71.6538 109.306 70.9505C108.085 70.3527 106.724 70.1417 105.363 69.9307C104.455 69.7549 103.583 69.7549 102.676 69.9307C101.734 69.9307 100.896 70.1065 100.024 70.4933C98.2442 70.9505 96.7089 72.0054 95.4875 73.412C94.4756 74.3615 93.5683 75.3813 93.1496 76.7176C92.6262 77.4912 92.347 78.3352 92.2772 79.2846C91.6142 81.9572 91.8934 84.8407 93.0798 87.3023C94.336 89.6935 96.2901 91.8738 98.8025 92.9287C101.14 94.3002 104.107 94.476 106.724 93.9485C108.922 93.421 111.051 92.2958 112.551 90.5727C113.493 89.588 114.435 88.5682 114.959 87.2671C117.052 82.7308 116.215 76.8934 112.586 73.3769Z" fill="white"/>
<path d="M104.944 94.8278C102.78 94.863 100.407 94.652 98.5581 93.4915C97.1972 92.9289 95.9061 92.0498 94.9639 90.8893C91.6489 87.7244 90.7068 83.0475 91.7885 78.687C91.8234 77.7024 92.4864 76.8936 92.8354 76.0144C93.289 74.643 94.4754 73.6935 95.4176 72.6737C96.255 71.7243 97.3717 70.9155 98.5232 70.4232C99.4304 70.0715 100.303 69.7902 101.21 69.4737C102.187 69.3682 103.059 69.2979 104.037 69.1924C105.467 69.2979 106.863 69.544 108.294 69.8957C110.527 70.6693 112.446 72.1814 114.016 73.9749C115.691 76.3309 116.738 79.0386 116.738 81.9925C116.668 84.7354 115.866 87.8651 113.947 89.975C111.818 92.7531 108.433 94.6871 104.944 94.8278ZM104.037 70.4232C103.199 70.4935 102.292 70.599 101.454 70.6693C100.687 70.9506 99.7794 71.2671 99.0117 71.5485C97.0576 72.4276 95.5222 74.1507 94.2311 75.8386C93.9171 76.6122 93.4983 77.4562 93.1145 78.1947C92.9749 78.5815 92.9749 79.0738 92.8703 79.4958C92.5213 80.7617 92.5562 82.0628 92.5562 83.364C92.6958 84.1728 92.9051 85.087 93.1494 85.8958C93.5681 87.1266 94.1962 88.2519 95.0686 89.2717C95.6269 89.9047 96.2899 90.5728 96.8482 91.1355C97.8602 91.9091 99.1164 92.4366 100.233 93.0344C101.524 93.4915 103.094 93.7025 104.525 93.6674C107.282 93.7025 110.283 92.3311 112.132 90.2212C113.388 88.9552 114.4 87.6189 114.854 85.8607C116.215 82.098 115.342 77.9485 113.074 74.7836C111.958 73.4474 110.527 72.3924 109.061 71.5485C107.526 70.7748 105.677 70.5638 104.037 70.4232Z" fill="#3C1053"/>
<path d="M27.0234 76.3658C25.7672 75.0647 24.0922 74.2559 22.3126 74.1153C21.7194 74.0098 21.1262 74.0098 20.533 74.1153C19.9397 74.1153 19.3465 74.2208 18.8231 74.5021C17.6716 74.7834 16.6596 75.4867 15.8571 76.401C15.1941 76.9988 14.6009 77.7021 14.3217 78.5461C13.9728 79.0735 13.7983 79.601 13.7285 80.234C13.3795 81.6758 13.4493 83.223 13.903 84.6296C15.0894 88.0758 18.7184 90.3264 22.3126 89.9748C28.8379 89.2011 31.6644 81.0428 27.0234 76.3658ZM109.619 76.3658C108.363 75.0647 106.688 74.2559 104.908 74.1153C104.315 74.0098 103.722 74.0098 103.129 74.1153C102.535 74.1153 101.942 74.2208 101.419 74.5021C100.267 74.7834 99.2554 75.4867 98.4528 76.401C97.7898 76.9988 97.1966 77.7021 96.9174 78.5461C96.5685 79.0735 96.394 79.601 96.3242 80.234C95.9753 81.6758 96.0451 83.223 96.4987 84.6296C97.6851 88.0758 101.314 90.3264 104.908 89.9748C111.468 89.2011 114.295 81.0428 109.619 76.3658Z" fill="#8138E0"/>
<path d="M50.9967 55.5828C50.9269 53.3322 51.1712 51.0816 50.9967 48.8311C50.9967 48.1629 51.0316 48.1629 51.0316 47.4596C51.0316 46.7915 50.9269 46.7915 50.9269 46.0882C50.8222 44.8574 49.8801 45.0684 48.7634 45.2091C48.4145 45.2442 47.9958 45.1739 47.5072 45.2442C47.1234 45.3146 46.7396 45.5255 46.3208 45.5959C45.5182 45.7014 44.7157 45.842 43.8782 46.0179C42.6569 46.1937 41.4356 46.475 40.284 46.9673C37.8763 47.4948 35.5733 48.5146 33.2702 49.4289C31.8046 50.2025 30.5484 51.2926 29.2922 52.3476C28.7688 52.9102 27.9662 53.5784 28.036 54.3872C28.1756 55.1608 28.7688 55.8993 29.4667 56.2861C29.8156 56.4619 30.2344 56.5674 30.6182 56.5674C31.2812 56.5674 31.2812 56.6377 31.9093 56.6377C32.5374 56.6377 32.5374 56.5322 33.2004 56.5322C33.8634 56.5322 33.8634 56.5322 34.4915 56.5322C35.8524 56.6377 37.0039 56.6377 38.3648 56.6729C39.3419 56.6729 39.97 56.6026 40.947 56.5322C41.5751 56.5322 41.61 56.6377 42.2381 56.6377C42.9011 56.6377 42.9011 56.5322 43.5292 56.5322C44.5063 56.6026 45.1344 56.6026 46.1114 56.5322C47.0885 56.5322 47.7166 56.6026 48.6937 56.6729C49.6009 56.6026 50.892 56.9542 50.9967 55.5828ZM54.556 55.5828C54.556 54.9146 54.6606 54.9146 54.6606 54.2465C54.6606 53.5784 54.5211 53.5784 54.5211 52.9102C54.5211 52.2421 54.6258 52.2421 54.6258 51.5739C54.6258 50.9058 54.5211 50.9058 54.5211 50.2377C54.5211 49.5695 54.556 49.5695 54.556 48.9014C54.5211 47.8113 54.556 47.2838 54.6258 46.1937C54.6258 45.631 55.0096 45.2091 55.5679 45.2091C56.196 45.2091 56.196 45.0684 56.7892 45.0684C57.4173 45.0332 57.4173 45.0684 58.0105 45.0684C58.6037 45.0684 58.6386 45.1387 59.2319 45.1036C59.86 45.0684 59.86 45.0332 60.4532 45.0332C61.0464 45.0332 61.0813 45.1036 61.6745 45.0684C62.3026 45.0332 62.3026 44.9277 62.8958 44.8926C63.8031 44.8926 64.4312 44.9629 65.3733 44.9629C66.0014 44.9277 66.0014 44.9277 66.5946 44.8926C67.6415 44.8222 67.8159 44.7519 69.0373 44.9277C70.1888 45.1036 71.4799 45.2794 72.6314 45.8069C73.8178 46.1937 74.76 47.0728 75.737 47.8113C76.6443 48.6552 77.3771 49.675 77.8307 50.8706C78.5635 51.8904 78.8427 53.1212 79.1916 54.3168C79.2963 54.7037 79.4359 55.0905 79.5057 55.5125C79.6103 56.1103 79.0171 56.6377 78.4239 56.6377C77.7958 56.6377 77.7958 56.6377 77.1677 56.6377C75.8417 56.7784 74.6902 56.6729 73.3642 56.6729C72.7361 56.6729 72.7361 56.6729 72.108 56.6729C71.4799 56.6729 71.4799 56.5674 70.8518 56.5674C69.5258 56.7081 68.3743 56.7081 67.0483 56.6377C66.4202 56.6377 66.4202 56.7081 65.7921 56.7081C64.8499 56.6377 64.1869 56.6026 63.2447 56.6026C62.6166 56.6026 62.6166 56.7081 61.9885 56.7081C61.3604 56.7081 61.3604 56.6377 60.7323 56.6377C60.1042 56.6377 60.1042 56.7081 59.4761 56.7081C58.848 56.7081 58.848 56.6026 58.2199 56.6026C57.5918 56.6026 57.5918 56.6377 56.9288 56.6377C56.0215 56.4971 54.6257 56.7784 54.556 55.5828Z" fill="white"/>
<path d="M42.4481 93.8428C41.1221 93.8428 39.9706 93.8428 38.6446 93.7373C37.8071 93.7022 36.8999 93.7725 36.0973 93.8077C35.4692 93.8077 35.4692 93.7022 34.8062 93.7022H33.55C32.9219 93.7022 32.9219 93.8077 32.2938 93.8077C31.6657 93.8077 31.6657 93.8428 31.0376 93.8428C30.4095 93.8428 30.4095 93.667 29.7813 93.667C28.0366 93.667 26.4315 93.8076 24.6867 93.7725C23.3607 93.7725 22.2092 93.7022 20.8832 93.7725C19.5572 93.7725 18.4057 93.7373 17.0797 93.8077C16.0677 93.7373 15.5443 93.667 14.5324 93.7022C13.9043 93.7022 13.9043 93.8428 13.2762 93.8428C12.6481 93.8428 12.6481 93.7373 11.9851 93.7373C10.694 93.7373 9.43775 93.7373 8.18154 93.7022C7.55344 93.7022 7.55344 93.8077 6.89044 93.8077C6.22744 93.8077 6.26233 93.7373 5.59934 93.7373C4.23844 93.667 3.12181 93.8077 1.76092 93.7373C1.09792 93.7373 1.09792 94.722 1.76092 94.722C2.70308 94.7571 3.36608 94.7923 4.30823 94.8626C5.25039 94.8274 5.91339 94.7923 6.85554 94.8274C8.18154 94.8274 9.33307 94.7571 10.6591 94.722C11.9851 94.7923 13.1366 94.7571 14.4975 94.722C15.1256 94.722 15.1256 94.8274 15.7886 94.8274C16.4516 94.8274 16.4167 94.722 17.0797 94.722C18.4057 94.8275 19.5572 94.7923 20.9181 94.722C22.6628 94.7923 24.268 94.8275 26.0127 94.722C26.9549 94.7923 27.6179 94.8274 28.56 94.8274C29.1881 94.8274 29.1881 94.722 29.8162 94.722C31.1422 94.8626 32.2938 94.8978 33.6198 94.8274C34.5619 94.8626 35.2249 94.8626 36.1671 94.8274C37.4233 94.8274 38.7144 94.7923 39.9706 94.7571C40.9128 94.7923 41.5758 94.8275 42.5179 94.8978C43.1111 94.8275 43.1111 93.8077 42.4481 93.8428Z" fill="#3C1053"/>
<path d="M52.1489 79.2845C52.777 79.2845 52.777 79.39 53.4051 79.39C54.0332 79.39 54.0332 79.2493 54.6613 79.2493C55.2894 79.2493 55.2894 79.2141 55.9175 79.2141C56.5457 79.2141 56.5456 79.3196 57.1738 79.3196C58.1159 79.3548 58.744 79.3548 59.6513 79.2845C60.5934 79.3196 61.2215 79.3196 62.1288 79.2845C62.7569 79.2845 62.7569 79.2141 63.385 79.2141C64.0131 79.2141 64.0131 79.3196 64.6412 79.3196C65.2693 79.3196 65.2693 79.2493 65.8974 79.2493C66.5255 79.2493 66.5255 79.3548 67.1536 79.3548C68.0958 79.3196 68.7239 79.2845 69.6312 79.2845C70.5733 79.2493 71.2014 79.2845 72.1087 79.3548C72.7368 79.3548 72.7368 79.2845 73.3649 79.2845C73.993 79.2845 73.993 79.3548 74.6211 79.3548C75.5633 79.3548 76.1914 79.3548 77.0986 79.39C77.7267 79.39 77.7267 79.2845 78.3548 79.2845C79.297 79.3548 79.9251 79.3548 80.8324 79.3196C81.4605 79.3196 81.4604 79.2845 82.0886 79.2845C82.7167 79.2845 82.7167 79.3548 83.3448 79.3548C83.9729 79.3548 83.9729 79.2845 84.601 79.2845C85.264 79.2845 85.264 78.335 84.601 78.335C83.9729 78.335 83.9729 78.1943 83.3448 78.1943C82.7167 78.1943 82.7167 78.2295 82.0886 78.2295C81.4604 78.2295 81.4605 78.3702 80.8324 78.3702C80.2043 78.3702 80.2042 78.2647 79.5761 78.2647C78.634 78.2295 78.0059 78.2647 77.0986 78.335C76.296 78.335 75.3888 78.335 74.6211 78.2998C73.993 78.2998 73.993 78.2295 73.3649 78.2295C72.4227 78.2647 71.7946 78.335 70.8874 78.3702C70.2593 78.3702 70.2593 78.2295 69.6312 78.2295C69.0031 78.2295 69.0031 78.335 68.3749 78.335C67.6073 78.2998 66.6651 78.2998 65.8974 78.2998C65.2693 78.2998 65.2693 78.2295 64.6412 78.2295C64.0131 78.2295 64.0131 78.335 63.385 78.335C62.7569 78.335 62.7569 78.335 62.1288 78.335C61.5007 78.335 61.5007 78.2647 60.8726 78.2647C60.2445 78.2647 60.2445 78.335 59.6164 78.335C58.6742 78.2998 58.0461 78.2998 57.1389 78.335C56.5108 78.335 56.5108 78.4053 55.8826 78.4053C55.2545 78.4053 55.2545 78.2647 54.6264 78.2647C53.9983 78.2647 53.9983 78.4405 53.3702 78.4405C52.7421 78.4405 52.7421 78.2647 52.114 78.2647C51.451 78.1943 51.451 79.2845 52.1489 79.2845ZM41.8899 79.2845C42.5878 79.2845 42.5878 79.39 43.2508 79.39C43.9138 79.39 43.9487 79.2493 44.6117 79.2493C45.2747 79.2493 45.3096 79.2141 45.9726 79.2141C46.6356 79.2141 46.6705 79.3196 47.3335 79.3196C47.9965 79.3196 48.0313 79.3548 48.6943 79.3548C49.3573 79.3548 49.3573 78.2295 48.6943 78.2295C47.9965 78.2295 47.9965 78.1943 47.3335 78.1943C46.3215 78.1943 45.6236 78.2647 44.5768 78.2998C43.8789 78.2998 43.8789 78.1943 43.2159 78.1943C42.518 78.1943 42.518 78.2647 41.855 78.2647C41.2269 78.2998 41.2269 79.2845 41.8899 79.2845Z" fill="white"/>
<path d="M128.499 93.667C127.173 93.7022 126.056 93.8077 124.73 93.7022C123.404 93.7725 122.287 93.6319 120.961 93.6319C120.333 93.6319 120.333 93.7725 119.705 93.7725C119.077 93.7725 119.077 93.6319 118.449 93.6319C117.821 93.6319 117.821 93.7022 117.193 93.7022C116.565 93.7022 116.565 93.6319 115.936 93.6319C115.308 93.6319 115.308 93.7725 114.68 93.7725C114.052 93.7725 114.052 93.7022 113.424 93.7022C111.679 93.7374 110.109 93.8428 108.399 93.6319C107.771 93.6319 107.771 93.7022 107.143 93.7022C106.515 93.7022 106.515 93.7725 105.887 93.7725C104.945 93.7022 104.317 93.7374 103.374 93.7725C102.048 93.667 100.932 93.5967 99.6058 93.667C98.9776 93.667 98.9776 93.7374 98.3495 93.7374C97.4074 93.7022 96.7793 93.667 95.8371 93.5967C95.209 93.5967 95.209 93.5967 94.5809 93.5967C93.9528 93.5967 93.9528 93.7022 93.3247 93.7022C91.9987 93.667 90.8821 93.667 89.5561 93.6319C88.928 93.6319 88.928 93.5615 88.2999 93.5615C87.3577 93.6319 86.7296 93.667 85.7875 93.6319C84.8453 93.5967 84.2172 93.6319 83.275 93.7022C82.6469 93.7022 82.6469 93.6319 82.0188 93.6319C81.0767 93.667 80.4486 93.7374 79.5064 93.7374C78.8783 93.7374 78.8783 93.5967 78.2502 93.5967H76.994C76.3659 93.5967 76.3659 93.7022 75.7378 93.7022C75.1097 93.7022 75.1097 93.667 74.4816 93.667C73.5394 93.7022 71.6551 93.7022 70.713 93.7022C70.0849 93.7022 70.0849 93.5967 69.4567 93.5967C68.8286 93.5967 68.8286 93.7022 68.2005 93.7022C67.5026 93.7022 66.386 93.7022 65.6881 93.667C64.746 93.7374 64.1179 93.7374 63.1757 93.7022C62.5476 93.7022 62.5476 93.7374 61.9195 93.7374C61.2914 93.7374 61.2914 93.5615 60.6633 93.5615C60.0352 93.5615 60.0352 93.667 59.4071 93.667C58.779 93.667 58.779 93.6319 58.1509 93.6319C57.5228 93.6319 57.5228 93.5615 56.8947 93.5615C55.9525 93.5967 55.3244 93.667 54.3822 93.7022C53.7192 93.7022 53.7192 94.6868 54.3822 94.6868C55.0103 94.6868 55.0103 94.722 55.6385 94.722C56.2666 94.722 56.2666 94.6165 56.8947 94.6165C57.8368 94.6165 58.4649 94.6165 59.4071 94.5813C60.0352 94.5813 60.0352 94.6868 60.6633 94.6868C61.2914 94.6868 61.2914 94.6868 61.9195 94.6868C62.8616 94.6868 63.4898 94.6517 64.4319 94.6165C65.3741 94.6165 66.0022 94.6516 66.9443 94.6868C67.5724 94.6868 67.5724 94.6516 68.2005 94.6516C68.8286 94.6516 68.8286 94.722 69.4567 94.722C70.3989 94.6516 71.027 94.6516 71.9692 94.722C72.5973 94.722 72.5973 94.6165 73.2254 94.6165C73.8535 94.6165 73.8535 94.6165 74.4816 94.6165C75.4237 94.6165 76.0518 94.6516 76.994 94.6868C77.6221 94.6868 77.6221 94.6165 78.2502 94.6165C78.8783 94.6165 78.8783 94.6868 79.5064 94.6868C80.4486 94.6516 81.0767 94.6516 82.0188 94.722C82.6469 94.722 82.6469 94.6516 83.275 94.6516C83.9031 94.6516 83.9031 94.7923 84.5312 94.7923C85.4734 94.7571 86.1015 94.722 87.0437 94.7571C87.9858 94.7571 88.6139 94.7923 89.5561 94.7923C90.3238 94.7571 91.2659 94.6868 92.0685 94.722C93.0107 94.7571 93.6388 94.722 94.5809 94.6868C95.9069 94.7923 97.0235 94.7571 98.3495 94.7571C100.059 94.7923 101.699 94.6868 103.374 94.7923C104.177 94.722 105.084 94.6868 105.887 94.722C106.515 94.722 106.515 94.6868 107.143 94.6868C107.771 94.6868 107.771 94.7571 108.399 94.7571C109.027 94.7571 109.027 94.7923 109.655 94.7923C110.284 94.7923 110.284 94.6868 110.912 94.6868C112.168 94.6868 113.424 94.6516 114.68 94.722C115.657 94.6516 116.216 94.6516 117.193 94.722C118.135 94.7571 118.763 94.7571 119.705 94.722C120.647 94.722 121.275 94.722 122.217 94.7571C122.846 94.7571 122.846 94.6165 123.474 94.6165C124.102 94.6165 124.102 94.7571 124.73 94.7571C126.056 94.7571 127.173 94.6868 128.533 94.6516C129.162 94.7923 129.162 93.7022 128.499 93.667ZM49.8459 93.5264C48.7642 93.5264 48.0663 93.5967 46.9846 93.667C46.2518 93.667 46.2518 93.667 45.5539 93.667C44.8909 93.667 44.8909 94.6516 45.5539 94.6516C47.0544 94.6868 48.3455 94.7571 49.8459 94.6165C50.5089 94.6165 50.5089 93.5264 49.8459 93.5264Z" fill="#3C1053"/>
<defs>
<linearGradient id="paint0_linear_5305_46786" x1="60.5648" y1="54.142" x2="60.5648" y2="-4.61768" gradientUnits="userSpaceOnUse">
<stop offset="0.09" stop-color="#8138E0" stop-opacity="0"/>
<stop offset="1" stop-color="#8138E0" stop-opacity="0.9"/>
</linearGradient>
</defs>
</svg>
